<svg xmlns="http://www.w3.org/2000/svg" viewBox="0 0 760 1040" preserveAspectRatio="none">
  <defs>
    <filter id="largeNoise">
      <feTurbulence type="fractalNoise" baseFrequency="0.026" numOctaves="6" seed="42"/>
      <feColorMatrix type="saturate" values="0.28"/>
      <feBlend mode="multiply" in2="SourceGraphic"/>
    </filter>
    <filter id="largeShadow" x="-18%" y="-12%" width="136%" height="126%">
      <feDropShadow dx="0" dy="20" stdDeviation="16" flood-color="#000000" flood-opacity="0.55"/>
    </filter>
    <linearGradient id="largePaper" x1="0" y1="0" x2="1" y2="1">
      <stop offset="0" stop-color="#d9b177"/>
      <stop offset="0.42" stop-color="#c38e53"/>
      <stop offset="1" stop-color="#996235"/>
    </linearGradient>
    <radialGradient id="largeLight" cx="44%" cy="22%" r="75%">
      <stop offset="0" stop-color="#f4d095" stop-opacity="0.62"/>
      <stop offset="0.7" stop-color="#b67c45" stop-opacity="0.18"/>
      <stop offset="1" stop-color="#48220e" stop-opacity="0.25"/>
    </radialGradient>
  </defs>
  <path filter="url(#largeShadow)" fill="url(#largePaper)" d="M52 28 C116 10 176 35 232 22 C293 8 350 30 410 22 C488 12 553 37 708 30 C685 91 724 142 704 210 C734 288 690 347 713 425 C688 501 725 571 697 646 C723 728 680 792 699 858 C669 914 703 971 678 1014 C611 995 560 1029 499 1007 C431 1030 378 1000 315 1014 C245 985 195 1025 128 1003 C79 1022 42 982 61 918 C30 849 72 788 49 714 C74 648 32 581 61 511 C32 431 75 367 51 292 C83 214 38 154 65 86 C42 60 49 41 52 28 Z"/>
  <path fill="url(#largeLight)" filter="url(#largeNoise)" opacity="0.92" d="M52 28 C116 10 176 35 232 22 C293 8 350 30 410 22 C488 12 553 37 708 30 C685 91 724 142 704 210 C734 288 690 347 713 425 C688 501 725 571 697 646 C723 728 680 792 699 858 C669 914 703 971 678 1014 C611 995 560 1029 499 1007 C431 1030 378 1000 315 1014 C245 985 195 1025 128 1003 C79 1022 42 982 61 918 C30 849 72 788 49 714 C74 648 32 581 61 511 C32 431 75 367 51 292 C83 214 38 154 65 86 C42 60 49 41 52 28 Z"/>
  <g opacity="0.17" stroke="#2f1708" stroke-width="2">
    <path d="M124 205 H642"/><path d="M116 252 H652"/><path d="M126 299 H638"/>
    <path d="M118 346 H648"/><path d="M126 393 H638"/><path d="M119 440 H649"/>
    <path d="M130 487 H629"/><path d="M126 534 H638"/><path d="M121 581 H646"/>
    <path d="M127 628 H637"/><path d="M124 675 H641"/><path d="M135 722 H624"/>
  </g>
  <path fill="none" stroke="#4b270f" stroke-opacity="0.2" stroke-width="5" d="M98 89 C220 69 282 94 383 75 C492 54 572 91 662 84"/>
  <path fill="none" stroke="#4b270f" stroke-opacity="0.15" stroke-width="4" d="M111 930 C217 955 306 918 393 943 C486 971 578 918 653 944"/>
  <g opacity="0.2" fill="#4a210c">
    <circle cx="119" cy="142" r="18"/><circle cx="649" cy="174" r="14"/>
    <circle cx="91" cy="610" r="12"/><circle cx="672" cy="812" r="16"/>
  </g>
</svg>
