<svg xmlns="http://www.w3.org/2000/svg" viewBox="0 0 360 450" preserveAspectRatio="none">
  <defs>
    <filter id="paperNoise">
      <feTurbulence type="fractalNoise" baseFrequency="0.045" numOctaves="5" seed="18"/>
      <feColorMatrix type="saturate" values="0.35"/>
      <feBlend mode="multiply" in2="SourceGraphic"/>
    </filter>
    <filter id="edgeShadow" x="-20%" y="-20%" width="140%" height="140%">
      <feDropShadow dx="0" dy="12" stdDeviation="9" flood-color="#000000" flood-opacity="0.45"/>
    </filter>
    <linearGradient id="paper" x1="0" y1="0" x2="1" y2="1">
      <stop offset="0" stop-color="#d6ae73"/>
      <stop offset="0.42" stop-color="#c39155"/>
      <stop offset="1" stop-color="#9a6636"/>
    </linearGradient>
    <radialGradient id="centerLight" cx="45%" cy="28%" r="68%">
      <stop offset="0" stop-color="#f0c98a" stop-opacity="0.55"/>
      <stop offset="0.72" stop-color="#c08b52" stop-opacity="0.18"/>
      <stop offset="1" stop-color="#5b2f15" stop-opacity="0.22"/>
    </radialGradient>
  </defs>
  <path filter="url(#edgeShadow)" fill="url(#paper)" d="M29 19 C63 8 82 21 115 18 C150 15 184 4 215 18 C247 32 283 16 327 28 C319 58 339 83 325 116 C341 151 318 182 330 220 C315 258 336 292 315 329 C327 368 295 394 301 426 C263 412 236 433 204 421 C170 439 145 415 112 426 C82 410 52 431 25 404 C37 364 15 340 31 305 C13 268 36 240 23 202 C38 163 16 132 31 97 C16 65 38 43 29 19 Z"/>
  <path fill="url(#centerLight)" filter="url(#paperNoise)" opacity="0.9" d="M29 19 C63 8 82 21 115 18 C150 15 184 4 215 18 C247 32 283 16 327 28 C319 58 339 83 325 116 C341 151 318 182 330 220 C315 258 336 292 315 329 C327 368 295 394 301 426 C263 412 236 433 204 421 C170 439 145 415 112 426 C82 410 52 431 25 404 C37 364 15 340 31 305 C13 268 36 240 23 202 C38 163 16 132 31 97 C16 65 38 43 29 19 Z"/>
  <path fill="none" stroke="#4b270f" stroke-opacity="0.22" stroke-width="3" d="M45 38 C83 32 117 37 154 31 C192 24 233 39 310 43"/>
  <path fill="none" stroke="#4b270f" stroke-opacity="0.14" stroke-width="2" d="M50 386 C97 398 126 384 166 394 C206 404 244 383 292 394"/>
  <g opacity="0.16" stroke="#2f1708" stroke-width="1.6">
    <path d="M63 117 H292"/><path d="M58 148 H302"/><path d="M62 179 H292"/>
    <path d="M58 210 H302"/><path d="M64 241 H288"/><path d="M61 272 H297"/>
    <path d="M67 303 H286"/><path d="M74 334 H279"/>
  </g>
  <circle cx="180" cy="54" r="18" fill="#1c1209" opacity="0.18"/>
  <circle cx="180" cy="50" r="12" fill="#23201d"/>
  <circle cx="176" cy="45" r="5" fill="#d8d3ca" opacity="0.82"/>
</svg>
